<?xml version="1.0" encoding="utf-8"?>
<!-- Generator: Adobe Illustrator 21.1.0, SVG Export Plug-In . SVG Version: 6.00 Build 0)  -->
<svg version="1.1" xmlns="http://www.w3.org/2000/svg" xmlns:xlink="http://www.w3.org/1999/xlink" x="0px" y="0px"
	 viewBox="0 0 141.7 141.7" style="enable-background:new 0 0 141.7 141.7;" xml:space="preserve">
<style type="text/css">
	.st0{display:none;}
	.st1{display:inline;fill:#00983A;stroke:#FFFFFF;stroke-miterlimit:10;}
	.st2{display:inline;fill:#E30613;stroke:#FFFFFF;stroke-miterlimit:10;}
	.st3{display:inline;fill:#EA5B0C;stroke:#FFFFFF;stroke-miterlimit:10;}
	.st4{display:inline;fill:#FFDE00;stroke:#FFFFFF;stroke-miterlimit:10;}
	.st5{display:inline;fill:#27348B;stroke:#FFFFFF;stroke-miterlimit:10;}
	.st6{display:inline;fill:#82368C;stroke:#FFFFFF;stroke-miterlimit:10;}
	.st7{display:inline;}
	.st8{fill:#1D1D1B;}
	.st9{fill:none;stroke:#1D1D1B;stroke-linecap:round;stroke-miterlimit:10;}
	.st10{display:inline;fill:#1D1D1B;}
	.st11{display:inline;fill:none;stroke:#1D1D1B;stroke-linecap:round;stroke-miterlimit:10;}
	.st12{display:inline;fill:#3AAA35;}
	.st13{display:inline;fill:#FFFFFF;}
	.st14{fill:#FFFFFF;}
	.st15{display:inline;fill:#FFFFFF;stroke:#1D1D1B;stroke-linecap:square;stroke-miterlimit:10;}
	.st16{display:inline;fill:none;stroke:#1D1D1B;stroke-linecap:square;stroke-miterlimit:10;}
	.st17{fill:none;stroke:#1D1D1B;stroke-miterlimit:10;}
	.st18{fill:url(#SVGID_1_);}
	.st19{fill:url(#SVGID_2_);}
	.st20{fill:url(#SVGID_3_);}
	.st21{fill:url(#SVGID_4_);}
	.st22{fill:#1C8A90;}
	.st23{fill:#09B4BD;}
	.st24{fill:#82368C;}
	.st25{display:inline;fill:url(#SVGID_5_);}
	.st26{display:inline;fill:url(#SVGID_6_);stroke:#8C8C8C;}
	.st27{display:inline;fill:url(#SVGID_7_);stroke:#8C8C8C;}
	.st28{display:inline;fill:url(#SVGID_8_);stroke:#8C8C8C;}
	.st29{display:inline;fill:url(#SVGID_9_);stroke:#8C8C8C;}
	.st30{display:inline;fill:url(#SVGID_10_);stroke:#8C8C8C;}
	.st31{display:inline;fill:url(#SVGID_11_);stroke:#8C8C8C;}
	.st32{fill:url(#SVGID_12_);stroke:#8C8C8C;}
	.st33{fill:url(#SVGID_13_);}
	.st34{fill:url(#SVGID_14_);}
	.st35{fill:url(#SVGID_15_);}
	.st36{fill:url(#SVGID_16_);}
	.st37{fill:url(#SVGID_17_);}
	.st38{fill:url(#SVGID_18_);}
	.st39{fill:url(#SVGID_19_);}
	.st40{fill:url(#SVGID_20_);}
	.st41{fill:url(#SVGID_21_);}
	.st42{fill:none;stroke:#FFFFFF;stroke-width:2;stroke-miterlimit:10;}
</style>
<g id="Layer_1" class="st0">
	<g class="st7">
		<rect x="17.3" y="31.2" class="st8" width="5.7" height="22.7"/>
		<rect x="34.3" y="31.2" class="st8" width="5.7" height="22.7"/>
		<rect x="23" y="42.5" class="st8" width="11.3" height="5.7"/>
		<rect x="14.5" y="28.3" class="st9" width="28.3" height="28.3"/>
	</g>
	<g class="st7">
		<rect x="45.7" y="42.5" class="st8" width="5.7" height="11.3"/>
		<rect x="62.7" y="42.5" class="st8" width="5.7" height="11.3"/>
		<rect x="51.3" y="42.5" class="st8" width="11.3" height="5.7"/>
		<path class="st8" d="M68.3,42.5c0-6.3-5.1-11.3-11.3-11.3c-6.3,0-11.3,5.1-11.3,11.3h5.7c0-3.1,2.5-5.7,5.7-5.7
			c3.1,0,5.7,2.5,5.7,5.7H68.3z"/>
		<rect x="42.8" y="28.3" class="st9" width="28.3" height="28.3"/>
	</g>
	<g class="st7">
		
			<rect x="86.8" y="43.9" transform="matrix(-1.836970e-16 1 -1 -1.836970e-16 140.622 -47.0787)" class="st8" width="14.2" height="5.7"/>
		
			<rect x="69.8" y="43.9" transform="matrix(-1.836970e-16 1 -1 -1.836970e-16 123.6142 -30.0709)" class="st8" width="14.2" height="5.7"/>
		<path class="st8" d="M85.3,39.7c0-1.6,1.3-2.8,2.8-2.8s2.8,1.3,2.8,2.8h5.7c0-4.7-3.8-8.5-8.5-8.5c-1,0-1.9,0.2-2.8,0.5V39.7z"/>
		<path class="st8" d="M85.3,39.7v-8c-0.9-0.3-1.8-0.5-2.8-0.5c-4.7,0-8.5,3.8-8.5,8.5h5.7c0-1.6,1.3-2.8,2.8-2.8
			C84.1,36.9,85.3,38.1,85.3,39.7z"/>
		<rect x="71.2" y="28.3" class="st9" width="28.3" height="28.3"/>
	</g>
	<g class="st7">
		<rect x="45.7" y="59.5" class="st8" width="5.7" height="22.7"/>
		<rect x="51.3" y="76.5" class="st8" width="17" height="5.7"/>
		<rect x="42.8" y="56.7" class="st9" width="28.3" height="28.3"/>
	</g>
	<g class="st7">
		<rect x="82.5" y="59.5" class="st8" width="14.2" height="5.7"/>
		<rect x="82.5" y="76.5" class="st8" width="14.2" height="5.7"/>
		<path class="st8" d="M82.5,70.9c-1.6,0-2.8-1.3-2.8-2.8s1.3-2.8,2.8-2.8v-5.7c-4.7,0-8.5,3.8-8.5,8.5c0,1,0.2,1.9,0.5,2.8H82.5z"
			/>
		<path class="st8" d="M82.5,70.9h-8c-0.3,0.9-0.5,1.8-0.5,2.8c0,4.7,3.8,8.5,8.5,8.5v-5.7c-1.6,0-2.8-1.3-2.8-2.8
			C79.7,72.1,80.9,70.9,82.5,70.9z"/>
		<rect x="71.2" y="56.7" class="st9" width="28.3" height="28.3"/>
	</g>
	<g class="st7">
		<rect x="110.9" y="59.5" class="st8" width="5.7" height="22.7"/>
		<rect x="102.4" y="59.5" class="st8" width="22.7" height="5.7"/>
		<rect x="99.5" y="56.7" class="st9" width="28.3" height="28.3"/>
	</g>
	<path class="st10" d="M59.8,133.2L59.8,133.2C59.8,133.2,59.8,133.2,59.8,133.2L59.8,133.2H74v-5.7H59.8c-4.7,0-8.5,3.8-8.5,8.5
		c0,1,0.2,1.9,0.5,2.8h0c-0.3,0.9-0.5,1.8-0.5,2.8c0,4.7,3.8,8.5,8.5,8.5H74v-5.7H59.8v0c0,0,0,0,0,0h0c-0.8,0-1.4-0.6-1.4-1.4
		s0.6-1.4,1.4-1.4h11.3v-5.7H59.8c-0.8,0-1.4-0.6-1.4-1.4C58.4,133.9,59.1,133.2,59.8,133.2z"/>
</g>
<g id="Layer_3" class="st0">
</g>
<g id="Layer_2" class="st0">
	<polygon class="st10" points="-28,62.4 -39.4,62.4 -39.4,133.2 -33.7,133.2 -28,133.2 34.3,133.2 34.3,121.9 -28,121.9 	"/>
	<polygon class="st10" points="0.3,62.4 0.3,73.7 11.6,73.7 11.6,119.1 23,119.1 23,73.7 34.3,73.7 34.3,62.4 	"/>
</g>
<g id="Layer_4" class="st0">
	<linearGradient id="SVGID_1_" gradientUnits="userSpaceOnUse" x1="82.5522" y1="300.4321" x2="-165.7401" y2="52.1398">
		<stop  offset="7.772021e-03" style="stop-color:#EA5B0C"/>
		<stop  offset="0.1921" style="stop-color:#E9550D"/>
		<stop  offset="0.4454" style="stop-color:#E8430E"/>
		<stop  offset="0.7372" style="stop-color:#E62610"/>
		<stop  offset="1" style="stop-color:#E30613"/>
	</linearGradient>
	<path style="display:inline;fill:url(#SVGID_1_);" d="M-2.8,45.4v70.9v14.2v0.4h-84.4v-8.9h-0.2V45.4h-51.2c0,0-23,1.1-28.2,8
		c-5.2,6.8-5.6,35-5.6,35v42.1h0v85v8.5v76.5h85.3v-76.5v-8.1h84.4v13.8v70.9h85.3v-70.9v-14.2v-85v-14.2V45.4H-2.8z"/>
	
		<linearGradient id="SVGID_2_" gradientUnits="userSpaceOnUse" x1="-2.7636" y1="172.9144" x2="82.512" y2="172.9144" gradientTransform="matrix(1 0 0 1 -2.000000e-04 -1.000000e-03)">
		<stop  offset="0" style="stop-color:#ADADAD"/>
		<stop  offset="1" style="stop-color:#FFFFFF"/>
	</linearGradient>
	<rect x="-2.8" y="130.4" style="display:inline;fill:url(#SVGID_2_);stroke:#8C8C8C;" width="85.3" height="85"/>
	
		<linearGradient id="SVGID_3_" gradientUnits="userSpaceOnUse" x1="-2.7636" y1="87.875" x2="82.512" y2="87.875" gradientTransform="matrix(1 0 0 1 -2.000000e-04 -1.000000e-03)">
		<stop  offset="0" style="stop-color:#ADADAD"/>
		<stop  offset="1" style="stop-color:#FFFFFF"/>
	</linearGradient>
	<rect x="-2.8" y="45.4" style="display:inline;fill:url(#SVGID_3_);stroke:#8C8C8C;" width="85.3" height="85"/>
</g>
<g id="Layer_5">
	<g>
		<linearGradient id="SVGID_4_" gradientUnits="userSpaceOnUse" x1="9.094947e-13" y1="106.2992" x2="141.7323" y2="106.2992">
			<stop  offset="0" style="stop-color:#1A5F7A"/>
			<stop  offset="1" style="stop-color:#222222"/>
		</linearGradient>
		<polygon class="st21" points="141.7,141.7 70.9,70.9 0,141.7 		"/>
		<linearGradient id="SVGID_5_" gradientUnits="userSpaceOnUse" x1="8.260149e-07" y1="35.4331" x2="141.7323" y2="35.4331">
			<stop  offset="0" style="stop-color:#1A5F7A"/>
			<stop  offset="1" style="stop-color:#222222"/>
		</linearGradient>
		<polygon style="fill:url(#SVGID_5_);" points="0,0 70.9,70.9 141.7,0 		"/>
		<linearGradient id="SVGID_6_" gradientUnits="userSpaceOnUse" x1="70.8662" y1="70.8661" x2="141.7323" y2="70.8661">
			<stop  offset="0" style="stop-color:#1A5F7A"/>
			<stop  offset="1" style="stop-color:#222222"/>
		</linearGradient>
		<polygon style="fill:url(#SVGID_6_);" points="141.7,0 70.9,70.9 141.7,141.7 		"/>
		<linearGradient id="SVGID_7_" gradientUnits="userSpaceOnUse" x1="8.260149e-07" y1="70.8661" x2="70.8661" y2="70.8661">
			<stop  offset="0" style="stop-color:#1A5F7A"/>
			<stop  offset="1" style="stop-color:#222222"/>
		</linearGradient>
		<polygon style="fill:url(#SVGID_7_);" points="0,141.7 70.9,70.9 0,0 		"/>
	</g>
	<g>
		<polygon class="st22" points="25.3,116.4 116.4,116.4 121.5,121.5 20.2,121.5 		"/>
		<polygon class="st23" points="20.2,20.2 121.5,20.2 116.4,25.3 25.3,25.3 		"/>
		<polygon class="st23" points="50.6,91.1 30.4,111.4 30.4,30.4 50.6,50.6 		"/>
		<polygon class="st22" points="111.4,111.4 91.1,91.1 91.1,50.6 111.4,30.4 		"/>
		<polygon class="st22" points="70.9,70.9 70.9,70.9 60.7,81 81,81 		"/>
		<polygon class="st22" points="91.1,60.7 60.7,60.7 81,81 91.1,81 		"/>
		<polygon class="st23" points="81,60.7 50.6,60.7 50.6,81 60.7,81 		"/>
	</g>
</g>
</svg>
