<?xml version="1.0" encoding="utf-8"?>
<!-- Generator: Adobe Illustrator 21.1.0, SVG Export Plug-In . SVG Version: 6.00 Build 0)  -->
<svg version="1.1" xmlns="http://www.w3.org/2000/svg" xmlns:xlink="http://www.w3.org/1999/xlink" x="0px" y="0px"
	 viewBox="0 0 141.7 141.7" style="enable-background:new 0 0 141.7 141.7;" xml:space="preserve">
<style type="text/css">
	.st0{display:none;}
	.st1{display:inline;fill:#00983A;stroke:#FFFFFF;stroke-miterlimit:10;}
	.st2{display:inline;fill:#E30613;stroke:#FFFFFF;stroke-miterlimit:10;}
	.st3{display:inline;fill:#EA5B0C;stroke:#FFFFFF;stroke-miterlimit:10;}
	.st4{display:inline;fill:#FFDE00;stroke:#FFFFFF;stroke-miterlimit:10;}
	.st5{display:inline;fill:#27348B;stroke:#FFFFFF;stroke-miterlimit:10;}
	.st6{display:inline;fill:#82368C;stroke:#FFFFFF;stroke-miterlimit:10;}
	.st7{display:inline;}
	.st8{fill:#1D1D1B;}
	.st9{fill:none;stroke:#1D1D1B;stroke-linecap:round;stroke-miterlimit:10;}
	.st10{display:inline;fill:#1D1D1B;}
	.st11{display:inline;fill:none;stroke:#1D1D1B;stroke-linecap:round;stroke-miterlimit:10;}
	.st12{display:inline;fill:#3AAA35;}
	.st13{display:inline;fill:#FFFFFF;}
	.st14{fill:#FFFFFF;}
	.st15{display:inline;fill:#FFFFFF;stroke:#1D1D1B;stroke-linecap:square;stroke-miterlimit:10;}
	.st16{display:inline;fill:none;stroke:#1D1D1B;stroke-linecap:square;stroke-miterlimit:10;}
	.st17{fill:none;stroke:#1D1D1B;stroke-miterlimit:10;}
	.st18{fill:url(#SVGID_1_);}
	.st19{fill:url(#SVGID_2_);}
	.st20{fill:url(#SVGID_3_);}
	.st21{fill:url(#SVGID_4_);}
	.st22{fill:#1C8A90;}
	.st23{fill:#09B4BD;}
	.st24{fill:#82368C;}
	.st25{display:inline;fill:url(#SVGID_5_);}
	.st26{display:inline;fill:url(#SVGID_6_);stroke:#8C8C8C;}
	.st27{display:inline;fill:url(#SVGID_7_);stroke:#8C8C8C;}
	.st28{display:inline;fill:url(#SVGID_8_);stroke:#8C8C8C;}
	.st29{display:inline;fill:url(#SVGID_9_);stroke:#8C8C8C;}
	.st30{display:inline;fill:url(#SVGID_10_);stroke:#8C8C8C;}
	.st31{display:inline;fill:url(#SVGID_11_);stroke:#8C8C8C;}
	.st32{fill:url(#SVGID_12_);stroke:#8C8C8C;}
	.st33{fill:url(#SVGID_13_);}
	.st34{fill:url(#SVGID_14_);}
	.st35{fill:url(#SVGID_15_);}
	.st36{fill:url(#SVGID_16_);}
	.st37{fill:url(#SVGID_17_);}
	.st38{fill:url(#SVGID_18_);}
	.st39{fill:url(#SVGID_19_);}
	.st40{fill:url(#SVGID_20_);}
	.st41{fill:url(#SVGID_21_);}
	.st42{fill:url(#SVGID_22_);}
	.st43{fill:url(#SVGID_23_);}
	.st44{fill:url(#SVGID_24_);}
	.st45{fill:url(#SVGID_25_);}
	.st46{fill:url(#SVGID_26_);}
	.st47{fill:url(#SVGID_27_);}
	.st48{fill:url(#SVGID_28_);}
	.st49{fill:url(#SVGID_29_);}
	.st50{fill:none;stroke:#D60B52;stroke-width:3;stroke-miterlimit:10;}
	.st51{fill:none;stroke:#FFFFFF;stroke-width:2;stroke-miterlimit:10;}
	.st52{opacity:0.8;fill:#09B4BD;}
	.st53{fill:url(#SVGID_30_);}
	.st54{fill:url(#SVGID_31_);}
	.st55{fill:url(#SVGID_32_);}
	.st56{fill:url(#SVGID_33_);}
</style>
<g id="Layer_1" class="st0">
	<rect x="113.4" y="23.6" class="st2" width="28.3" height="28.3"/>
	<rect x="141.7" y="23.6" class="st3" width="28.3" height="28.3"/>
	<rect x="141.7" y="-4.7" class="st5" width="28.3" height="28.3"/>
	<rect x="113.4" y="-4.7" class="st6" width="28.3" height="28.3"/>
	<path class="st13" d="M119.1,20.8L119.1,20.8c-1.6,0-2.8-1.3-2.8-2.8v-17c0-1.6,1.3-2.8,2.8-2.8h0c1.6,0,2.8,1.3,2.8,2.8v17
		C121.9,19.5,120.6,20.8,119.1,20.8z"/>
	<path class="st13" d="M136.1,20.8L136.1,20.8c1.6,0,2.8-1.3,2.8-2.8v-17c0-1.6-1.3-2.8-2.8-2.8l0,0c-1.6,0-2.8,1.3-2.8,2.8v17
		C133.2,19.5,134.5,20.8,136.1,20.8z"/>
	<rect x="121.9" y="9.4" class="st13" width="11.3" height="5.7"/>
	<path class="st13" d="M121.9,49.1h-2.8c-1.6,0-2.8-1.3-2.8-2.8v-17c0-1.6,1.3-2.8,2.8-2.8h0c1.6,0,2.8,1.3,2.8,2.8V49.1z"/>
	<path class="st13" d="M136.1,49.1h-14.2v-5.7h14.2c1.6,0,2.8,1.3,2.8,2.8v0C138.9,47.9,137.6,49.1,136.1,49.1z"/>
	<g class="st7">
		<g>
			<polygon class="st14" points="85.5,193.2 85.5,164.8 56.2,164.8 56.2,193.2 28.8,193.2 28.8,120.5 40.2,120.5 40.2,109.1 
				56.2,109.1 56.2,137.5 85.5,137.5 85.5,109.1 112.9,109.1 112.9,193.2 			"/>
			<path class="st8" d="M112.4,109.6v83H86v-27.3v-1h-1H56.7h-1v1v27.3H29.3V121l10.3,0l1,0l0-1l0-10.3h15V137v1h1H85h1v-1v-27.3
				H112.4 M113.4,108.6H85V137H56.7v-28.3h-17l0,11.3l-11.3,0v73.7h28.3v-28.3H85v28.3h28.3V108.6L113.4,108.6z"/>
		</g>
		<polygon class="st8" points="28.3,120 36.9,111.5 39.7,108.6 39.7,120 34,120 		"/>
	</g>
	<rect x="141.7" y="80.3" class="st10" width="36.9" height="2.8"/>
</g>
<g id="Layer_3" class="st0">
	<g class="st7">
		<g>
			<polygon class="st8" points="96.4,77.5 147.4,77.5 150.2,80.3 93.5,80.3 			"/>
		</g>
		<g>
			<polygon class="st8" points="93.5,23.6 150.2,23.6 147.4,26.4 96.4,26.4 			"/>
		</g>
		<polygon class="st8" points="133.2,40.6 133.2,46.3 110.6,46.3 110.6,40.6 99.2,29.3 99.2,74.6 110.6,63.3 110.6,57.6 133.2,57.6 
			133.2,63.3 144.6,74.6 144.6,29.3 		"/>
	</g>
</g>
<g id="Layer_2" class="st0">
	<g class="st7">
		<path class="st8" d="M83-8.4v52.7h-7.3v-15v-2h-2H62.4h-2v2v15H53V-8.4h7.3v26.3v2h2h11.3h2v-2V-8.4H83 M85-10.4H73.7v28.3H62.4
			v-28.3H51v56.7h11.3v-17h11.3v17H85V-10.4L85-10.4z"/>
	</g>
	<polygon class="st10" points="82.2,145.5 70.9,145.5 70.9,120 59.5,120 59.5,173.8 70.9,173.8 70.9,156.8 82.2,156.8 82.2,173.8 
		93.5,173.8 93.5,120 82.2,120 	"/>
	<g class="st7">
		<path class="st8" d="M109.3-8.4l10.6,21.1v31.5h-7.3v-15v-2h-2H99.2h-2v2v15h-7.3V12.7l10.6-21.1H109.3 M97.2,19.9h2h11.3h2v-2
			v-5.7v-0.5l-0.2-0.4L106.7,0l-1.8-3.6L103.1,0l-5.7,11.3l-0.2,0.4v0.5v5.7V19.9 M110.6-10.4H99.2L87.9,12.3v34h11.3v-17h11.3v17
			h11.3v-34L110.6-10.4L110.6-10.4z M99.2,17.9v-5.7l5.7-11.3l5.7,11.3v5.7H99.2L99.2,17.9z"/>
	</g>
	<g class="st7">
		<path class="st8" d="M168.1-8.4v52.7h-7.3V9.4V-4.8l-3.9,13.7l-5.3,18.4h-8.3L138,8.9l-3.9-13.7V9.4v34.9h-7.3V-8.4h3.7h5.7h4.2
			l5.3,18.4l1.9,6.7l1.9-6.7l5.3-18.4h4.2h5.7H168.1 M170.1-10.4h-5.7h-5.7h-5.7l-5.7,19.8l-5.7-19.8h-5.7h-5.7h-5.7v56.7h11.3V9.4
			l5.7,19.8h11.3l5.7-19.8v36.9h11.3V-10.4L170.1-10.4z"/>
	</g>
	<g class="st7">
		<path class="st8" d="M114.2,113.5V171v2h2h60.4v7.3h-60.4h-5.7h-3.7v-66.9H114.2 M116.2,111.5h-11.3v70.9h5.7h5.7h62.4V171h-62.4
			V111.5L116.2,111.5z"/>
	</g>
	<g class="st7">
		<path class="st8" d="M139.7,113.5v7.3h-9.3h-2v2v11.3v2h2h9.3v7.3h-9.3h-2v2v11.3v2h2h9.3v7.3h-9.3h-9.3v-52.7h9.3H139.7
			 M141.7,111.5h-11.3h-11.3v56.7h11.3h11.3v-11.3h-11.3v-11.3h11.3v-11.3h-11.3v-11.3h11.3V111.5L141.7,111.5z"/>
	</g>
	<rect x="51" y="111.5" class="st10" width="51" height="2.8"/>
	<rect x="51" y="111.5" class="st10" width="2.8" height="68"/>
	<rect x="99.2" y="111.5" class="st10" width="2.8" height="68"/>
	<rect x="51" y="54.8" class="st10" width="204.1" height="5.7"/>
	<rect x="51" y="49.1" class="st10" width="204.1" height="2.8"/>
	<rect x="62.4" y="46.3" class="st13" width="11.3" height="17"/>
	<rect x="85" y="46.3" class="st13" width="2.8" height="17"/>
	<rect x="121.9" y="46.3" class="st13" width="2.8" height="17"/>
	<rect x="99.2" y="46.3" class="st13" width="11.3" height="17"/>
	<rect x="136.1" y="46.3" class="st13" width="22.7" height="17"/>
</g>
<g id="Layer_4" class="st0">
	<linearGradient id="SVGID_1_" gradientUnits="userSpaceOnUse" x1="294.8435" y1="97.2707" x2="46.5513" y2="-151.0216">
		<stop  offset="7.772021e-03" style="stop-color:#EA5B0C"/>
		<stop  offset="0.1921" style="stop-color:#E9550D"/>
		<stop  offset="0.4454" style="stop-color:#E8430E"/>
		<stop  offset="0.7372" style="stop-color:#E62610"/>
		<stop  offset="1" style="stop-color:#E30613"/>
	</linearGradient>
	<path style="display:inline;fill:url(#SVGID_1_);" d="M209.5-157.8v70.9v14.2v0.4h-84.4v-8.9h-0.2v-76.5H73.7c0,0-23,1.1-28.2,8
		c-5.2,6.8-5.6,35-5.6,35v42.1h0v85v8.5v76.5h85.3V20.8v-8.1h84.4v13.8v70.9h85.3V26.4V12.3v-85v-14.2v-70.9H209.5z"/>
	
		<linearGradient id="SVGID_2_" gradientUnits="userSpaceOnUse" x1="39.8467" y1="-30.247" x2="125.1222" y2="-30.247" gradientTransform="matrix(1 0 0 1 -2.000000e-04 -1.000000e-03)">
		<stop  offset="0" style="stop-color:#ADADAD"/>
		<stop  offset="1" style="stop-color:#FFFFFF"/>
	</linearGradient>
	<rect x="39.8" y="-72.8" style="display:inline;fill:url(#SVGID_2_);stroke:#8C8C8C;" width="85.3" height="85"/>
	
		<linearGradient id="SVGID_3_" gradientUnits="userSpaceOnUse" x1="39.8467" y1="54.7923" x2="125.1222" y2="54.7923" gradientTransform="matrix(1 0 0 1 -2.000000e-04 -1.000000e-03)">
		<stop  offset="0" style="stop-color:#ADADAD"/>
		<stop  offset="1" style="stop-color:#FFFFFF"/>
	</linearGradient>
	<rect x="39.8" y="12.3" style="display:inline;fill:url(#SVGID_3_);stroke:#8C8C8C;" width="85.3" height="85"/>
	
		<linearGradient id="SVGID_4_" gradientUnits="userSpaceOnUse" x1="124.4884" y1="-29.8494" x2="209.764" y2="-29.8494" gradientTransform="matrix(1 0 0 1 -2.000000e-04 -1.000000e-03)">
		<stop  offset="0" style="stop-color:#ADADAD"/>
		<stop  offset="1" style="stop-color:#FFFFFF"/>
	</linearGradient>
	<rect x="124.5" y="-72.4" style="display:inline;fill:url(#SVGID_4_);stroke:#8C8C8C;" width="85.3" height="85"/>
</g>
<g id="Layer_5">
	<line class="st51" x1="0" y1="0" x2="0" y2="0.9"/>
	<polygon class="st8" points="56.7,86 96.4,86 96.4,100.1 124.7,128.5 124.7,15.1 96.4,43.5 96.4,57.6 85,57.6 	"/>
	<g>
		<polygon class="st8" points="85,57.6 42.5,57.6 42.5,43.5 14.2,15.1 14.2,128.5 42.5,100.1 42.5,86 56.7,86 		"/>
	</g>
</g>
</svg>
