<?xml version="1.0" encoding="utf-8"?>
<!-- Generator: Adobe Illustrator 21.1.0, SVG Export Plug-In . SVG Version: 6.00 Build 0)  -->
<svg version="1.1" xmlns="http://www.w3.org/2000/svg" xmlns:xlink="http://www.w3.org/1999/xlink" x="0px" y="0px"
	 viewBox="0 0 141.7 141.7" style="enable-background:new 0 0 141.7 141.7;" xml:space="preserve">
<style type="text/css">
	.st0{display:none;}
	.st1{display:inline;fill:#00983A;stroke:#FFFFFF;stroke-miterlimit:10;}
	.st2{display:inline;fill:#E30613;stroke:#FFFFFF;stroke-miterlimit:10;}
	.st3{display:inline;fill:#EA5B0C;stroke:#FFFFFF;stroke-miterlimit:10;}
	.st4{display:inline;fill:#FFDE00;stroke:#FFFFFF;stroke-miterlimit:10;}
	.st5{display:inline;fill:#27348B;stroke:#FFFFFF;stroke-miterlimit:10;}
	.st6{display:inline;fill:#82368C;stroke:#FFFFFF;stroke-miterlimit:10;}
	.st7{display:inline;}
	.st8{fill:#1D1D1B;}
	.st9{fill:none;stroke:#1D1D1B;stroke-linecap:round;stroke-miterlimit:10;}
	.st10{display:inline;fill:#1D1D1B;}
	.st11{display:inline;fill:none;stroke:#1D1D1B;stroke-linecap:round;stroke-miterlimit:10;}
	.st12{display:inline;fill:#3AAA35;}
	.st13{display:inline;fill:#FFFFFF;}
	.st14{fill:#FFFFFF;}
	.st15{display:inline;fill:#FFFFFF;stroke:#1D1D1B;stroke-linecap:square;stroke-miterlimit:10;}
	.st16{display:inline;fill:none;stroke:#1D1D1B;stroke-linecap:square;stroke-miterlimit:10;}
	.st17{fill:none;stroke:#1D1D1B;stroke-miterlimit:10;}
	.st18{fill:url(#SVGID_1_);}
	.st19{fill:url(#SVGID_2_);}
	.st20{fill:url(#SVGID_3_);}
	.st21{fill:url(#SVGID_4_);}
	.st22{fill:#1C8A90;}
	.st23{fill:#09B4BD;}
	.st24{fill:#82368C;}
	.st25{display:inline;fill:url(#SVGID_5_);}
	.st26{display:inline;fill:url(#SVGID_6_);stroke:#8C8C8C;}
	.st27{display:inline;fill:url(#SVGID_7_);stroke:#8C8C8C;}
	.st28{display:inline;fill:url(#SVGID_8_);stroke:#8C8C8C;}
	.st29{display:inline;fill:url(#SVGID_9_);stroke:#8C8C8C;}
	.st30{display:inline;fill:url(#SVGID_10_);stroke:#8C8C8C;}
	.st31{display:inline;fill:url(#SVGID_11_);stroke:#8C8C8C;}
	.st32{fill:url(#SVGID_12_);stroke:#8C8C8C;}
	.st33{fill:url(#SVGID_13_);}
	.st34{fill:url(#SVGID_14_);}
	.st35{fill:url(#SVGID_15_);}
	.st36{fill:url(#SVGID_16_);}
	.st37{fill:url(#SVGID_17_);}
	.st38{fill:url(#SVGID_18_);}
	.st39{fill:url(#SVGID_19_);}
	.st40{fill:url(#SVGID_20_);}
	.st41{fill:url(#SVGID_21_);}
	.st42{fill:none;stroke:#FFFFFF;stroke-width:2;stroke-miterlimit:10;}
</style>
<g id="Layer_1" class="st0">
	<rect x="88.8" y="-16" class="st15" width="28.3" height="28.3"/>
	<rect x="88.8" y="12.4" class="st15" width="28.3" height="28.3"/>
	<rect x="88.8" y="40.7" class="st15" width="28.3" height="28.3"/>
	<rect x="117.2" y="12.4" class="st15" width="28.3" height="28.3"/>
	<line class="st16" x1="88.8" y1="74.6" x2="88.8" y2="88.8"/>
	<line class="st16" x1="88.8" y1="74.6" x2="88.8" y2="88.8"/>
	<line class="st16" x1="69" y1="69" x2="83.2" y2="69"/>
</g>
<g id="Layer_3" class="st0">
	<g class="st7">
		<linearGradient id="SVGID_1_" gradientUnits="userSpaceOnUse" x1="23.6457" y1="71.7992" x2="103.0157" y2="71.7992">
			<stop  offset="0" style="stop-color:#F2F2F2"/>
			<stop  offset="1" style="stop-color:#DADADA"/>
		</linearGradient>
		<polygon class="st18" points="103,91.6 63.3,52 23.6,91.6 		"/>
		<linearGradient id="SVGID_2_" gradientUnits="userSpaceOnUse" x1="23.6457" y1="32.1142" x2="103.0157" y2="32.1142">
			<stop  offset="0" style="stop-color:#F2F2F2"/>
			<stop  offset="1" style="stop-color:#DADADA"/>
		</linearGradient>
		<polygon class="st19" points="23.6,12.3 63.3,52 103,12.3 		"/>
		<linearGradient id="SVGID_3_" gradientUnits="userSpaceOnUse" x1="63.3307" y1="51.9567" x2="103.0157" y2="51.9567">
			<stop  offset="0" style="stop-color:#F2F2F2"/>
			<stop  offset="1" style="stop-color:#DADADA"/>
		</linearGradient>
		<polygon class="st20" points="103,12.3 63.3,52 103,91.6 		"/>
		<linearGradient id="SVGID_4_" gradientUnits="userSpaceOnUse" x1="23.6457" y1="51.9567" x2="63.3307" y2="51.9567">
			<stop  offset="0" style="stop-color:#F2F2F2"/>
			<stop  offset="1" style="stop-color:#DADADA"/>
		</linearGradient>
		<polygon class="st21" points="23.6,91.6 63.3,52 23.6,12.3 		"/>
	</g>
	<g class="st7">
		<polygon class="st22" points="37.8,77.5 88.8,77.5 91.7,80.3 35,80.3 		"/>
		<polygon class="st23" points="35,23.6 91.7,23.6 88.8,26.4 37.8,26.4 		"/>
		<polygon class="st23" points="52,63.3 40.7,74.6 40.7,29.3 52,40.6 		"/>
		<polygon class="st22" points="86,74.6 74.7,63.3 74.7,40.6 86,29.3 		"/>
		<polygon class="st22" points="63.3,52 63.3,52 57.7,57.6 69,57.6 		"/>
		<polygon class="st22" points="74.7,46.3 57.7,46.3 69,57.6 74.7,57.6 		"/>
		<polygon class="st23" points="69,46.3 52,46.3 52,57.6 57.7,57.6 		"/>
	</g>
	<g class="st7">
		<g>
			<polygon class="st24" points="-41.6,77.5 9.5,77.5 12.3,80.3 -44.4,80.3 			"/>
		</g>
		<g>
			<polygon class="st24" points="-44.4,23.6 12.3,23.6 9.5,26.4 -41.6,26.4 			"/>
		</g>
		<polygon class="st24" points="6.6,74.6 -4.7,63.3 -4.7,40.6 6.6,29.3 		"/>
	</g>
</g>
<g id="Layer_2" class="st0">
	<g class="st7">
		<path class="st8" d="M4.6-8.4v7.3h-9.3h-2v2v11.3v2h2h9.3v7.3h-9.3h-2v2V35v2h2h9.3v7.3h-9.3H-14V-8.4h9.3H4.6 M6.6-10.4H-4.7H-16
			v56.7h11.3H6.6V35H-4.7V23.6H6.6V12.3H-4.7V0.9H6.6V-10.4L6.6-10.4z"/>
	</g>
	<g class="st7">
		<path class="st8" d="M41.5-8.4v7.3h-9.3h-2v2v43.4h-7.3V0.9v-2h-2h-9.3v-7.3H41.5 M43.5-10.4h-34V0.9h11.3v45.4h11.3V0.9h11.3
			V-10.4L43.5-10.4z"/>
	</g>
	<rect x="-163.4" y="54.8" class="st10" width="204.1" height="5.7"/>
	<rect x="-163.4" y="49.1" class="st10" width="204.1" height="2.8"/>
</g>
<g id="Layer_4" class="st0">
	<linearGradient id="SVGID_5_" gradientUnits="userSpaceOnUse" x1="80.3789" y1="97.2707" x2="-167.9133" y2="-151.0216">
		<stop  offset="7.772021e-03" style="stop-color:#EA5B0C"/>
		<stop  offset="0.1921" style="stop-color:#E9550D"/>
		<stop  offset="0.4454" style="stop-color:#E8430E"/>
		<stop  offset="0.7372" style="stop-color:#E62610"/>
		<stop  offset="1" style="stop-color:#E30613"/>
	</linearGradient>
	<path class="st25" d="M-4.9-157.8v70.9v14.2v0.4h-84.4v-8.9h-0.2v-76.5h-51.2c0,0-23,1.1-28.2,8c-5.2,6.8-5.6,35-5.6,35v42.1h0v85
		v8.5v76.5h85.3V20.8v-8.1h84.4v13.8v70.9h85.3V26.4V12.3v-85v-14.2v-70.9H-4.9z"/>
	
		<linearGradient id="SVGID_6_" gradientUnits="userSpaceOnUse" x1="-4.9368" y1="-30.247" x2="80.3388" y2="-30.247" gradientTransform="matrix(1 0 0 1 -2.000000e-04 -1.000000e-03)">
		<stop  offset="0" style="stop-color:#ADADAD"/>
		<stop  offset="1" style="stop-color:#FFFFFF"/>
	</linearGradient>
	<rect x="-4.9" y="-72.8" class="st26" width="85.3" height="85"/>
	
		<linearGradient id="SVGID_7_" gradientUnits="userSpaceOnUse" x1="-4.9368" y1="54.7923" x2="80.3388" y2="54.7923" gradientTransform="matrix(1 0 0 1 -2.000000e-04 -1.000000e-03)">
		<stop  offset="0" style="stop-color:#ADADAD"/>
		<stop  offset="1" style="stop-color:#FFFFFF"/>
	</linearGradient>
	<rect x="-4.9" y="12.3" class="st27" width="85.3" height="85"/>
</g>
<g id="Layer_5">
	<g>
		<polygon points="141.7,141.7 70.9,70.9 0,141.7 		"/>
		<polygon points="0,0 70.9,70.9 141.7,0 		"/>
		<polygon points="141.7,0 70.9,70.9 141.7,141.7 		"/>
		<polygon points="0,141.7 70.9,70.9 0,0 		"/>
	</g>
	<g>
		<polygon class="st14" points="25.3,116.4 116.4,116.4 121.5,121.5 20.2,121.5 		"/>
		<polygon class="st14" points="20.2,20.2 121.5,20.2 116.4,25.3 25.3,25.3 		"/>
		<polygon class="st14" points="50.6,91.1 30.4,111.4 30.4,30.4 50.6,50.6 		"/>
		<polygon class="st14" points="111.4,111.4 91.1,91.1 91.1,50.6 111.4,30.4 		"/>
		<polygon class="st14" points="70.9,70.9 70.9,70.9 60.7,81 81,81 		"/>
		<polygon class="st14" points="91.1,60.7 60.7,60.7 81,81 91.1,81 		"/>
		<polygon class="st14" points="81,60.7 50.6,60.7 50.6,81 60.7,81 		"/>
	</g>
	<line class="st42" x1="0" y1="0" x2="0" y2="0.9"/>
</g>
</svg>
