<?xml version="1.0" encoding="utf-8"?>
<!-- Generator: Adobe Illustrator 21.1.0, SVG Export Plug-In . SVG Version: 6.00 Build 0)  -->
<svg version="1.1" xmlns="http://www.w3.org/2000/svg" xmlns:xlink="http://www.w3.org/1999/xlink" x="0px" y="0px"
	 viewBox="0 0 141.7 141.7" style="enable-background:new 0 0 141.7 141.7;" xml:space="preserve">
<style type="text/css">
	.st0{display:none;}
	.st1{display:inline;fill:#00983A;stroke:#FFFFFF;stroke-miterlimit:10;}
	.st2{display:inline;fill:#E30613;stroke:#FFFFFF;stroke-miterlimit:10;}
	.st3{display:inline;fill:#EA5B0C;stroke:#FFFFFF;stroke-miterlimit:10;}
	.st4{display:inline;fill:#FFDE00;stroke:#FFFFFF;stroke-miterlimit:10;}
	.st5{display:inline;fill:#27348B;stroke:#FFFFFF;stroke-miterlimit:10;}
	.st6{display:inline;fill:#82368C;stroke:#FFFFFF;stroke-miterlimit:10;}
	.st7{display:inline;}
	.st8{fill:#1D1D1B;}
	.st9{fill:none;stroke:#1D1D1B;stroke-linecap:round;stroke-miterlimit:10;}
	.st10{display:inline;fill:#1D1D1B;}
	.st11{display:inline;fill:none;stroke:#1D1D1B;stroke-linecap:round;stroke-miterlimit:10;}
	.st12{display:inline;fill:#3AAA35;}
	.st13{display:inline;fill:#FFFFFF;}
	.st14{fill:#FFFFFF;}
	.st15{display:inline;fill:#FFFFFF;stroke:#1D1D1B;stroke-linecap:square;stroke-miterlimit:10;}
	.st16{display:inline;fill:none;stroke:#1D1D1B;stroke-linecap:square;stroke-miterlimit:10;}
	.st17{fill:none;stroke:#1D1D1B;stroke-miterlimit:10;}
	.st18{fill:url(#SVGID_1_);}
	.st19{fill:url(#SVGID_2_);}
	.st20{fill:url(#SVGID_3_);}
	.st21{fill:url(#SVGID_4_);}
	.st22{fill:#1C8A90;}
	.st23{fill:#09B4BD;}
	.st24{font-family:'Montserrat-Black';}
	.st25{font-size:29.393px;}
	.st26{fill:#82368C;}
	.st27{display:inline;fill:url(#SVGID_5_);}
	.st28{display:inline;fill:url(#SVGID_6_);stroke:#8C8C8C;}
	.st29{display:inline;fill:url(#SVGID_7_);stroke:#8C8C8C;}
	.st30{display:inline;fill:url(#SVGID_8_);stroke:#8C8C8C;}
	.st31{display:inline;fill:url(#SVGID_9_);stroke:#8C8C8C;}
	.st32{display:inline;fill:url(#SVGID_10_);stroke:#8C8C8C;}
	.st33{display:inline;fill:url(#SVGID_11_);stroke:#8C8C8C;}
	.st34{fill:url(#SVGID_12_);stroke:#8C8C8C;}
	.st35{fill:url(#SVGID_13_);}
	.st36{fill:url(#SVGID_14_);}
	.st37{fill:url(#SVGID_15_);}
	.st38{fill:url(#SVGID_16_);}
	.st39{fill:url(#SVGID_17_);}
	.st40{fill:url(#SVGID_18_);}
	.st41{fill:url(#SVGID_19_);}
	.st42{fill:url(#SVGID_20_);}
	.st43{fill:url(#SVGID_21_);}
	.st44{fill:url(#SVGID_22_);}
	.st45{fill:url(#SVGID_23_);}
	.st46{fill:url(#SVGID_24_);}
	.st47{fill:url(#SVGID_25_);}
	.st48{fill:url(#SVGID_26_);}
	.st49{fill:url(#SVGID_27_);}
	.st50{fill:url(#SVGID_28_);}
	.st51{fill:url(#SVGID_29_);}
	.st52{fill:none;stroke:#D60B52;stroke-width:3;stroke-miterlimit:10;}
	.st53{fill:none;stroke:#FFFFFF;stroke-width:2;stroke-miterlimit:10;}
	.st54{opacity:0.8;fill:#09B4BD;}
	.st55{fill:url(#SVGID_30_);}
	.st56{fill:url(#SVGID_31_);}
	.st57{fill:url(#SVGID_32_);}
	.st58{fill:url(#SVGID_33_);}
</style>
<g id="Layer_1" class="st0">
	<g class="st7">
		<rect x="31.2" y="31.2" class="st8" width="5.7" height="22.7"/>
		<rect x="48.2" y="31.2" class="st8" width="5.7" height="22.7"/>
		<rect x="36.9" y="42.5" class="st8" width="11.3" height="5.7"/>
		<rect x="31.2" y="59.5" class="st8" width="5.7" height="22.7"/>
		<rect x="36.9" y="76.5" class="st8" width="17" height="5.7"/>
		<rect x="96.4" y="59.5" class="st8" width="5.7" height="22.7"/>
		<rect x="87.9" y="59.5" class="st8" width="22.7" height="5.7"/>
		<rect x="59.5" y="42.5" class="st8" width="5.7" height="11.3"/>
		<rect x="76.5" y="42.5" class="st8" width="5.7" height="11.3"/>
		<rect x="65.2" y="42.5" class="st8" width="11.3" height="5.7"/>
		<rect x="68" y="59.5" class="st8" width="14.2" height="5.7"/>
		<rect x="68" y="76.5" class="st8" width="14.2" height="5.7"/>
		<path class="st8" d="M82.2,42.5c0-6.3-5.1-11.3-11.3-11.3c-6.3,0-11.3,5.1-11.3,11.3h5.7c0-3.1,2.5-5.7,5.7-5.7
			c3.1,0,5.7,2.5,5.7,5.7H82.2z"/>
		<path class="st8" d="M68,70.9c-1.6,0-2.8-1.3-2.8-2.8s1.3-2.8,2.8-2.8v-5.7c-4.7,0-8.5,3.8-8.5,8.5c0,1,0.2,1.9,0.5,2.8H68z"/>
		<path class="st8" d="M68,70.9h-8c-0.3,0.9-0.5,1.8-0.5,2.8c0,4.7,3.8,8.5,8.5,8.5v-5.7c-1.6,0-2.8-1.3-2.8-2.8
			C65.2,72.1,66.5,70.9,68,70.9z"/>
		
			<rect x="100.6" y="43.9" transform="matrix(-1.836970e-16 1 -1 -1.836970e-16 154.4882 -60.9449)" class="st8" width="14.2" height="5.7"/>
		
			<rect x="83.6" y="43.9" transform="matrix(-1.836970e-16 1 -1 -1.836970e-16 137.4803 -43.937)" class="st8" width="14.2" height="5.7"/>
		<path class="st8" d="M99.2,39.7c0-1.6,1.3-2.8,2.8-2.8s2.8,1.3,2.8,2.8h5.7c0-4.7-3.8-8.5-8.5-8.5c-1,0-1.9,0.2-2.8,0.5V39.7z"/>
		<path class="st8" d="M99.2,39.7v-8c-0.9-0.3-1.8-0.5-2.8-0.5c-4.7,0-8.5,3.8-8.5,8.5h5.7c0-1.6,1.3-2.8,2.8-2.8
			C97.9,36.9,99.2,38.1,99.2,39.7z"/>
		<rect x="28.3" y="28.3" class="st9" width="28.3" height="28.3"/>
		<rect x="56.7" y="28.3" class="st9" width="28.3" height="28.3"/>
		<rect x="85" y="28.3" class="st9" width="28.3" height="28.3"/>
		<rect x="28.3" y="56.7" class="st9" width="28.3" height="28.3"/>
		<rect x="56.7" y="56.7" class="st9" width="28.3" height="28.3"/>
		<rect x="85" y="56.7" class="st9" width="28.3" height="28.3"/>
	</g>
	<path class="st10" d="M34,138.9L34,138.9c-1.6,0-2.8-1.3-2.8-2.8v-17c0-1.6,1.3-2.8,2.8-2.8h0c1.6,0,2.8,1.3,2.8,2.8v17
		C36.9,137.6,35.6,138.9,34,138.9z"/>
	<path class="st10" d="M51,138.9L51,138.9c1.6,0,2.8-1.3,2.8-2.8v-17c0-1.6-1.3-2.8-2.8-2.8h0c-1.6,0-2.8,1.3-2.8,2.8v17
		C48.2,137.6,49.5,138.9,51,138.9z"/>
	<rect x="36.9" y="127.6" class="st10" width="11.3" height="5.7"/>
	<path class="st10" d="M65.2,127.6h-5.7v8.5c0,1.6,1.3,2.8,2.8,2.8h0c1.6,0,2.8-1.3,2.8-2.8V127.6z"/>
	<path class="st10" d="M79.4,138.9L79.4,138.9c-1.6,0-2.8-1.3-2.8-2.8v-8.5h5.7v8.5C82.2,137.6,80.9,138.9,79.4,138.9z"/>
	<path class="st10" d="M90.7,138.9L90.7,138.9c-1.6,0-2.8-1.3-2.8-2.8v-12.8h5.7v12.8C93.5,137.6,92.3,138.9,90.7,138.9z"/>
	<path class="st10" d="M99.2,127.6L99.2,127.6c-1.6,0-2.8-1.3-2.8-2.8v-1.4h5.7v1.4C102,126.3,100.8,127.6,99.2,127.6z"/>
	<path class="st10" d="M107.7,138.9L107.7,138.9c-1.6,0-2.8-1.3-2.8-2.8v-12.8h5.7v12.8C110.6,137.6,109.3,138.9,107.7,138.9z"/>
	<rect x="65.2" y="127.6" class="st10" width="11.3" height="5.7"/>
	<path class="st10" d="M82.2,127.6c0-6.3-5.1-11.3-11.3-11.3c-6.3,0-11.3,5.1-11.3,11.3h5.7c0-3.1,2.5-5.7,5.7-5.7
		c3.1,0,5.7,2.5,5.7,5.7H82.2z"/>
	<rect x="28.3" y="113.4" class="st11" width="28.3" height="28.3"/>
	<rect x="56.7" y="113.4" class="st11" width="28.3" height="28.3"/>
	<rect x="85" y="113.4" class="st11" width="28.3" height="28.3"/>
	<rect x="28.3" y="141.7" class="st11" width="28.3" height="28.3"/>
	<rect x="56.7" y="141.7" class="st11" width="28.3" height="28.3"/>
	<rect x="85" y="141.7" class="st11" width="28.3" height="28.3"/>
	<g class="st7">
		<rect x="141.7" y="28.3" class="st9" width="28.3" height="28.3"/>
	</g>
	<g class="st7">
		<rect x="141.7" y="56.7" class="st9" width="28.3" height="28.3"/>
	</g>
	<g class="st7">
		<rect x="141.7" y="85" class="st9" width="28.3" height="28.3"/>
	</g>
	<circle class="st12" cx="66.6" cy="66.6" r="1.4"/>
	<path class="st10" d="M103.5,121.9c0.8,0,1.4,0.6,1.4,1.4v0l0,0h5.7c0-3.9-3.2-7.1-7.1-7.1c-1.6,0-3.1,0.5-4.3,1.4
		c-1.2-0.9-2.7-1.4-4.3-1.4c-3.9,0-7.1,3.2-7.1,7.1h5.7l0,0v0c0-0.8,0.6-1.4,1.4-1.4s1.4,0.6,1.4,1.4h5.7
		C102,122.5,102.7,121.9,103.5,121.9z"/>
</g>
<g id="Layer_3" class="st0">
	<path class="st10" d="M82.2,59.5h-51l-2.8-2.8v56.7l2.8-2.8h51l2.8,2.8V56.7L82.2,59.5z M68,96.4v-5.7h-5.7H51h-5.7v5.7l-5.7,5.7
		V68l5.7,5.7V85h11.3H68V73.7l5.7-5.7v34L68,96.4z"/>
	<text transform="matrix(1 0 0 1 8.5038 25.5118)" class="st7 st24 st25">HAMLET</text>
</g>
<g id="Layer_2" class="st0">
	<polygon class="st10" points="73.7,90.7 62.4,90.7 62.4,62.4 51,62.4 51,119.1 62.4,119.1 62.4,102 73.7,102 73.7,119.1 85,119.1 
		85,62.4 73.7,62.4 	"/>
	<path class="st10" d="M99.2,62.4L87.9,85v34h11.3v-17h11.3v17h11.3V85l-11.3-22.7H99.2z M110.6,90.7H99.2V85l5.7-11.3l5.7,11.3
		V90.7z"/>
	<polygon class="st10" points="158.7,62.4 153.1,62.4 147.4,82.2 141.7,62.4 136.1,62.4 130.4,62.4 124.7,62.4 124.7,119.1 
		136.1,119.1 136.1,82.2 141.7,102 153.1,102 158.7,82.2 158.7,119.1 170.1,119.1 170.1,62.4 164.4,62.4 	"/>
	<rect x="51" y="121.9" class="st10" width="119.1" height="11.3"/>
</g>
<g id="Layer_4" class="st0">
	<linearGradient id="SVGID_1_" gradientUnits="userSpaceOnUse" x1="294.8435" y1="300.4321" x2="46.5513" y2="52.1398">
		<stop  offset="7.772021e-03" style="stop-color:#EA5B0C"/>
		<stop  offset="0.1921" style="stop-color:#E9550D"/>
		<stop  offset="0.4454" style="stop-color:#E8430E"/>
		<stop  offset="0.7372" style="stop-color:#E62610"/>
		<stop  offset="1" style="stop-color:#E30613"/>
	</linearGradient>
	<path style="display:inline;fill:url(#SVGID_1_);" d="M209.5,45.4v70.9v14.2v0.4h-84.4v-8.9h-0.2V45.4H73.7c0,0-23,1.1-28.2,8
		c-5.2,6.8-5.6,35-5.6,35v42.1h0v85v8.5v76.5h85.3v-76.5v-8.1h84.4v13.8v70.9h85.3v-70.9v-14.2v-85v-14.2V45.4H209.5z"/>
	
		<linearGradient id="SVGID_2_" gradientUnits="userSpaceOnUse" x1="39.8467" y1="172.9144" x2="125.1222" y2="172.9144" gradientTransform="matrix(1 0 0 1 -2.000000e-04 -1.000000e-03)">
		<stop  offset="0" style="stop-color:#ADADAD"/>
		<stop  offset="1" style="stop-color:#FFFFFF"/>
	</linearGradient>
	<rect x="39.8" y="130.4" style="display:inline;fill:url(#SVGID_2_);stroke:#8C8C8C;" width="85.3" height="85"/>
	
		<linearGradient id="SVGID_3_" gradientUnits="userSpaceOnUse" x1="124.4884" y1="173.312" x2="209.764" y2="173.312" gradientTransform="matrix(1 0 0 1 -2.000000e-04 -1.000000e-03)">
		<stop  offset="0" style="stop-color:#ADADAD"/>
		<stop  offset="1" style="stop-color:#FFFFFF"/>
	</linearGradient>
	<rect x="124.5" y="130.8" style="display:inline;fill:url(#SVGID_3_);stroke:#8C8C8C;" width="85.3" height="85"/>
	<g class="st7">
		
			<linearGradient id="SVGID_4_" gradientUnits="userSpaceOnUse" x1="46.5918" y1="52.1005" x2="124.886" y2="130.3947" gradientTransform="matrix(1 0 0 1 -2.000000e-04 -1.000000e-03)">
			<stop  offset="0" style="stop-color:#ADADAD"/>
			<stop  offset="1" style="stop-color:#FFFFFF"/>
		</linearGradient>
		<path style="fill:url(#SVGID_4_);stroke:#8C8C8C;" d="M124.9,130.4h-85V88.3c0,0,0.4-28.2,5.6-35c5.2-6.8,28.2-8,28.2-8h51.2
			V130.4z"/>
		
			<linearGradient id="SVGID_5_" gradientUnits="userSpaceOnUse" x1="60.3554" y1="71.1158" x2="45.3259" y2="53.2044" gradientTransform="matrix(1 0 0 1 -2.000000e-04 -1.000000e-03)">
			<stop  offset="0.2692" style="stop-color:#FFFFFF"/>
			<stop  offset="0.458" style="stop-color:#F9F9F9"/>
			<stop  offset="0.7173" style="stop-color:#E7E7E7"/>
			<stop  offset="1" style="stop-color:#CCCCCC"/>
		</linearGradient>
		<path style="fill:url(#SVGID_5_);" d="M39.8,88.3c0,0,0.4-28.2,5.6-35c5.2-6.8,28.2-8,28.2-8"/>
	</g>
</g>
<g id="Layer_5">
	<g>
		<linearGradient id="SVGID_6_" gradientUnits="userSpaceOnUse" x1="9.094947e-13" y1="106.2992" x2="141.7323" y2="106.2992">
			<stop  offset="0" style="stop-color:#F2F2F2"/>
			<stop  offset="1" style="stop-color:#CCCCCC"/>
		</linearGradient>
		<polygon style="fill:url(#SVGID_6_);" points="141.7,141.7 70.9,70.9 0,141.7 		"/>
		<linearGradient id="SVGID_7_" gradientUnits="userSpaceOnUse" x1="8.260149e-07" y1="35.4331" x2="141.7323" y2="35.4331">
			<stop  offset="0" style="stop-color:#F2F2F2"/>
			<stop  offset="1" style="stop-color:#CCCCCC"/>
		</linearGradient>
		<polygon style="fill:url(#SVGID_7_);" points="0,0 70.9,70.9 141.7,0 		"/>
		<linearGradient id="SVGID_8_" gradientUnits="userSpaceOnUse" x1="70.8662" y1="70.8661" x2="141.7323" y2="70.8661">
			<stop  offset="0" style="stop-color:#F2F2F2"/>
			<stop  offset="1" style="stop-color:#CCCCCC"/>
		</linearGradient>
		<polygon style="fill:url(#SVGID_8_);" points="141.7,0 70.9,70.9 141.7,141.7 		"/>
		<linearGradient id="SVGID_9_" gradientUnits="userSpaceOnUse" x1="8.260149e-07" y1="70.8661" x2="70.8661" y2="70.8661">
			<stop  offset="0" style="stop-color:#F2F2F2"/>
			<stop  offset="1" style="stop-color:#CCCCCC"/>
		</linearGradient>
		<polygon style="fill:url(#SVGID_9_);" points="0,141.7 70.9,70.9 0,0 		"/>
	</g>
	<polygon class="st22" points="56.7,85 99.2,85 99.2,99.2 127.6,127.6 127.6,14.2 99.2,42.5 99.2,56.7 85,56.7 	"/>
	<polygon class="st23" points="85,56.7 42.5,56.7 42.5,42.5 14.2,14.2 14.2,127.6 42.5,99.2 42.5,85 56.7,85 	"/>
</g>
</svg>
